# xmcd CD database file
#
# Track frame offsets:
#	150
#	14606
#	29261
#	44216
#	61518
#	83770
#	102631
#	116251
#	131944
#	152257
#	177019
#	191557
#	211505
#	224248
#	243344
#	262725
#	280868
#	300451
#	320159
#
# Disc length: 4594 seconds
#
# Revision: 0
# Processed by: cddbd v1.5.2PL0 Copyright (c) Steve Scherf et al.
# Submitted via: CDex 1.70beta2
#
DISCID=0911f013
DTITLE=Various Artist - Joyful grooves Exceed
DYEAR=2008
DGENRE=Jazz
TTITLE0=Tuomo - Don't Take It Too Hard
TTITLE1=Eastside Connection - You're So Right for Me
TTITLE2=Loyal Garner - You Are The Sun, Hawaii
TTITLE3=Wouter Hamel - Cheap Chardonnay
TTITLE4=Roman Andren - Let’s Live Forever, Love
TTITLE5=Pilot Jazou - More Time
TTITLE6=Mark Murphy and The Louis Van Dyke Trio - Happy Samba
TTITLE7=Buddy Rich and Mel Torme - Bluesette
TTITLE8=Greetje Kauffeld - Tristeza [Mansfield Black Sheep edit]
TTITLE9=DJ Graham B - It’s All Right Now
TTITLE10=Professor Longhair - Big Chief
TTITLE11=Billy Wooten - Crown Royale
TTITLE12=The Invaders Steel Band - Calendar Song
TTITLE13=Sindbad - Dumb Found [Your Song Is Halfby Mix]
TTITLE14=HALFBY - Man and Air
TTITLE15=Shiho Fujisawa - Drum Crazy For DJ
TTITLE16=Boot Beat - Theme Of Like A Bossa [Switch Version]
TTITLE17=Ohmega Watts - That Sound [Quantic Soul Orchestra Mix]
TTITLE18=Bobby Shad And The Bad Men - I Want You Back
EXTD=YEAR: 2008
EXTT0=
EXTT1=
EXTT2=
EXTT3=
EXTT4=
EXTT5=
EXTT6=
EXTT7=
EXTT8=
EXTT9=
EXTT10=
EXTT11=
EXTT12=
EXTT13=
EXTT14=
EXTT15=
EXTT16=
EXTT17=
EXTT18=
PLAYORDER=
